<svg xmlns="http://www.w3.org/2000/svg" xmlns:xlink="http://www.w3.org/1999/xlink" fill="none" version="1.1" width="90" height="108" viewBox="0 0 90 108"><g><path d="M0,0C1.25578,0.15055,2.37823,0.405138,3.57124,0.825138C3.73166,0.881432,3.89208,0.937725,4.05736,0.995725C4.57866,1.17986,5.09878,1.36711,5.6187,1.55515C5.79829,1.6197,5.97787,1.68426,6.1629,1.75077C20.6491,6.97604,33.8669,15.0023,40.7439,29.4037C41.3036,30.6184,41.8199,31.8479,42.321,33.0882C42.4233,33.3404,42.5257,33.5926,42.6311,33.8524C43.3634,35.7645,43.8325,37.7404,44.3026,39.7301C44.476,40.4524,44.6648,41.1706,44.8511,41.8897C45.2364,43.4441,45.4957,45.0058,45.7382,46.5882C45.7813,46.8268,45.8243,47.0653,45.8686,47.311C46.9498,53.5651,46.9194,60.0122,47.0695,66.342C47.0964,67.4622,47.1254,68.5823,47.1542,69.7024C47.2099,71.88,47.2634,74.0576,47.3154,76.2353C47.3496,75.9473,47.3838,75.6594,47.4191,75.3627C47.4654,74.9796,47.5117,74.5965,47.5581,74.2134C47.5917,73.9296,47.5917,73.9296,47.6259,73.6401C47.8156,72.0836,48.1205,70.5851,48.5311,69.0717C48.599,68.8175,48.6668,68.5632,48.7366,68.3013C49.8953,64.0667,51.266,59.9221,53.367,56.0616C53.6184,55.5988,53.8611,55.1313,54.1036,54.6638C58.6803,46.142,65.8512,40.1859,74.9972,37.3153C78.6153,36.3705,83.6564,35.9719,87.0078,37.8529C88.1906,38.6418,89.3153,39.5803,89.7935,40.9746C90.2459,43.4735,89.9656,45.4154,88.8478,47.6471C88.7534,47.8372,88.6589,48.0273,88.5616,48.2233C87.0924,51.1044,85.403,53.6503,83.3277,56.1176C83.0822,56.4157,82.8368,56.7138,82.5915,57.0121C79.3296,60.9422,75.7453,64.5714,72.156,68.1949C71.9961,68.3566,71.8362,68.5183,71.6715,68.6849C70.1537,70.2184,68.6423,71.7388,67.0051,73.1441C65.9544,74.0761,64.9781,75.0874,63.9908,76.0864C63.7775,76.3002,63.5642,76.514,63.3444,76.7342C62.2126,77.8758,61.1225,79.0373,60.0782,80.2605C59.5004,80.9325,58.8943,81.5765,58.2899,82.2243C51.5773,89.562,47.0883,97.9415,46.5268,108C46.3533,108,46.1798,108,46.0011,108C45.995,105.768,45.9903,103.536,45.9875,101.304C45.9861,100.267,45.9842,99.2301,45.9813,98.1933C45.9784,97.191,45.9768,96.1887,45.9761,95.1863C45.9757,94.8058,45.9747,94.4253,45.9733,94.0448C45.9666,92.1832,45.9891,90.3475,46.2028,88.4963C46.313,87.3892,46.312,86.2809,46.3173,85.1691C46.3188,84.9206,46.3203,84.6721,46.3219,84.4161C46.3243,83.8947,46.3261,83.3733,46.3271,82.8519C46.3297,82.0608,46.3378,81.2699,46.3461,80.4789C46.3478,79.9687,46.3492,79.4586,46.3502,78.9485C46.3551,78.5993,46.3551,78.5993,46.36,78.2431C46.353,76.2387,45.9938,74.4268,44.9332,72.7114C42.9008,70.8389,40.2664,70.2652,37.6552,69.6176C34.1892,68.7451,30.8426,67.6955,27.5842,66.2096C27.3847,66.1189,27.1852,66.0283,26.9797,65.9349C22.4015,63.8302,18.5938,61.2088,14.9832,57.7059C14.7948,57.5329,14.6064,57.3599,14.4123,57.1816C7.36507,50.525,4.36909,40.5111,2.8915,31.2353C2.85888,31.0306,2.82626,30.8259,2.79265,30.6149C2.23877,27.0639,1.96768,23.5563,1.86392,19.965C1.68367,13.8743,1.4031,7.80643,0.14478,1.82812C0,1.05882,0,1.05882,0,0Z" fill="#667C55" fill-opacity="1" style="mix-blend-mode:passthrough"/></g></svg>