<svg xmlns="http://www.w3.org/2000/svg" xmlns:xlink="http://www.w3.org/1999/xlink" fill="none" version="1.1" width="90" height="108" viewBox="0 0 90 108"><g><path d="M3.57124,0.825138C2.37823,0.405138,1.25578,0.15055,0,0C0,1.05882,0,1.05882,0.14478,1.82812C1.4031,7.80643,1.68367,13.8743,1.86392,19.965C1.96768,23.5563,2.23877,27.0639,2.79265,30.6149L2.8915,31.2353C4.36909,40.5111,7.36507,50.525,14.4123,57.1816L14.9832,57.7059C18.5938,61.2088,22.4015,63.8302,26.9797,65.9349L27.5842,66.2096C30.8426,67.6955,34.1892,68.7451,37.6552,69.6176C40.2664,70.2652,42.9008,70.8389,44.9332,72.7114C45.9938,74.4268,46.353,76.2387,46.36,78.2431L46.3502,78.9485C46.3492,79.4586,46.3478,79.9687,46.3461,80.4789C46.3378,81.2699,46.3297,82.0608,46.3271,82.8519C46.3261,83.3733,46.3243,83.8947,46.3219,84.4161L46.3173,85.1691C46.312,86.2809,46.313,87.3892,46.2028,88.4963C46.1244,89.1754,46.0718,89.8524,46.0368,90.5294L46.001,90.5294L46.001,91.4023C45.9735,92.2802,45.9701,93.1596,45.9733,94.0448C45.9747,94.4253,45.9757,94.8058,45.9761,95.1863C45.9768,96.1887,45.9784,97.191,45.9813,98.1933C45.9842,99.2301,45.9861,100.267,45.9875,101.304C45.9903,103.523,45.9949,105.742,46.001,107.961L46.001,108L46.5267,108C47.0883,97.9415,51.5773,89.562,58.2899,82.2243C58.8943,81.5765,59.5004,80.9325,60.0782,80.2605C61.1225,79.0373,62.2126,77.8758,63.3444,76.7342L63.9908,76.0864C64.9781,75.0874,65.9544,74.0761,67.0051,73.1441C68.6423,71.7388,70.1537,70.2184,71.6715,68.6849L72.156,68.1949C75.7453,64.5714,79.3296,60.9422,82.5915,57.0121C82.8368,56.7138,83.0822,56.4157,83.3277,56.1176C85.403,53.6503,87.0924,51.1044,88.5616,48.2233L88.8478,47.6471C89.9656,45.4154,90.2459,43.4735,89.7935,40.9746C89.3153,39.5803,88.1906,38.6418,87.0078,37.8529C83.6564,35.9719,78.6153,36.3705,74.9972,37.3153C65.8512,40.1859,58.6803,46.142,54.1036,54.6638C53.8611,55.1313,53.6184,55.5988,53.367,56.0616C51.266,59.9221,49.8953,64.0667,48.7366,68.3013L48.5311,69.0717C48.1205,70.5851,47.8156,72.0836,47.6259,73.6401L47.5581,74.2134C47.5117,74.5965,47.4654,74.9796,47.4191,75.3627L47.3154,76.2353C47.2634,74.0576,47.2099,71.88,47.1542,69.7024C47.1254,68.5823,47.0964,67.4622,47.0695,66.342C46.9194,60.0122,46.9498,53.5651,45.8686,47.311L45.7382,46.5882C45.4957,45.0058,45.2364,43.4441,44.8511,41.8897C44.6648,41.1706,44.476,40.4524,44.3026,39.7301C43.8325,37.7404,43.3634,35.7645,42.6311,33.8524L42.321,33.0882C41.8199,31.8479,41.3036,30.6184,40.7439,29.4037C33.8669,15.0023,20.6491,6.97604,6.1629,1.75077L5.6187,1.55515C5.09878,1.36711,4.57866,1.17986,4.05736,0.995725L3.57124,0.825138Z" fill-rule="evenodd" fill="#EDA54A" fill-opacity="1" style="mix-blend-mode:passthrough"/></g></svg>